# xmcd CD database file
# Copyright (C) 1993-1998 Ti Kan
# 
# Track frame offsets:
#     150
#     37027
#     40545
#     75680
# 
# Disc length: 1241 seconds
# 
# Revision: 1
# Processed by: cddbd v1.4b41PL1 Copyright (c) Steve Scherf et al.
# Submitted via: DiscPlay 4.0.4
# 
DISCID=2504d704
DTITLE=Size Queen - Music
DYEAR=1900
DGENRE=
TTITLE0=Funk Express
TTITLE1=Musicapella
TTITLE2=Eletrisco Mix
TTITLE3=Music Beats
EXTD=
EXTT0=
EXTT1=
EXTT2=
EXTT3=
PLAYORDER=
